<svg xmlns="http://www.w3.org/2000/svg" width="1526.0" height="882" viewBox="0 0 1526.0 882">
<rect x="0" y="0" width="1526.0" height="882" fill="#ffffff"/>
<text x="40" y="46" font-family="sans-serif" font-size="22" font-weight="bold" fill="#14306b">Incidentes Viales CDMX — Diagrama UML de clases</text>
<text x="40" y="68" font-family="sans-serif" font-size="12" fill="#5b6573">Capas: dominio · conocimiento · predictivo</text>
<polyline points="24.0,624.0 12.0,624.0 12.0,390.0 40.0,390.0" fill="none" stroke="#3a4656" stroke-width="1.4"/>
<polygon points="40.0,624.0 32.0,617.0 24.0,624.0 32.0,631.0" fill="#3a4656" stroke="#3a4656" stroke-width="1.4"/>
<polyline points="29.0,394.9 40.0,390.0 29.0,385.1" fill="none" stroke="#3a4656" stroke-width="1.4"/>
<polyline points="24.0,624.0 12.0,624.0 12.0,180.0 40.0,180.0" fill="none" stroke="#3a4656" stroke-width="1.4"/>
<polygon points="40.0,624.0 32.0,617.0 24.0,624.0 32.0,631.0" fill="#3a4656" stroke="#3a4656" stroke-width="1.4"/>
<polyline points="29.0,184.9 40.0,180.0 29.0,175.1" fill="none" stroke="#3a4656" stroke-width="1.4"/>
<polyline points="434.4,267.6 232.7,516.0" fill="none" stroke="#3a4656" stroke-width="1.4"/>
<polygon points="424.3,280.0 434.8,278.2 434.4,267.6 423.9,269.4" fill="#fff" stroke="#3a4656" stroke-width="1.4"/>
<polyline points="235.8,504.4 232.7,516.0 243.4,510.6" fill="none" stroke="#3a4656" stroke-width="1.4"/>
<polyline points="384.0,398.0 372.0,398.0 372.0,188.0 400.0,188.0" fill="none" stroke="#3a4656" stroke-width="1.4"/>
<polygon points="400.0,398.0 392.0,391.0 384.0,398.0 392.0,405.0" fill="#fff" stroke="#3a4656" stroke-width="1.4"/>
<polyline points="389.0,192.9 400.0,188.0 389.0,183.1" fill="none" stroke="#3a4656" stroke-width="1.4"/>
<polyline points="762.0,422.0 750.0,422.0 750.0,204.0 778.0,204.0" fill="none" stroke="#3a4656" stroke-width="1.4"/>
<polygon points="778.0,422.0 770.0,415.0 762.0,422.0 770.0,429.0" fill="#fff" stroke="#3a4656" stroke-width="1.4"/>
<polyline points="767.0,208.9 778.0,204.0 767.0,199.1" fill="none" stroke="#3a4656" stroke-width="1.4"/>
<polyline points="1222.0,218.4 628.0,369.1" fill="none" stroke="#3a4656" stroke-width="1.4"/>
<polyline points="637.4,361.7 628.0,369.1 639.8,371.1" fill="none" stroke="#3a4656" stroke-width="1.4"/>
<polyline points="1222.0,349.7 982.0,247.5" fill="none" stroke="#3a4656" stroke-width="1.4" stroke-dasharray="6,5"/>
<polyline points="994.0,247.3 982.0,247.5 990.2,256.3" fill="none" stroke="#3a4656" stroke-width="1.4"/>
<rect x="40" y="96" width="192.0" height="168" rx="5" fill="#efeafe" stroke="#6c5cd0" stroke-width="1.6"/>
<path d="M40,136 v-35 a5,5 0 0 1 5,-5 h182.0 a5,5 0 0 1 5,5 v35 z" fill="#ddd3fb" stroke="#6c5cd0" stroke-width="1.6"/>
<text x="136.0" y="112" text-anchor="middle" font-family="sans-serif" font-size="9.5" font-style="italic" fill="#352a78">&#171;entidad&#187;</text>
<text x="136.0" y="129" text-anchor="middle" font-family="sans-serif" font-size="12.5" font-weight="bold" fill="#352a78">UbicacionGeografica</text>
<line x1="40" y1="136" x2="232.0" y2="136" stroke="#6c5cd0" stroke-width="1.2"/>
<text x="52" y="150" font-family="sans-serif" font-size="10" fill="#23303f">+latitud: float</text>
<text x="52" y="166" font-family="sans-serif" font-size="10" fill="#23303f">+longitud: float</text>
<text x="52" y="182" font-family="sans-serif" font-size="10" fill="#23303f">+alcaldia: str</text>
<text x="52" y="198" font-family="sans-serif" font-size="10" fill="#23303f">+colonia: str</text>
<line x1="40" y1="208" x2="232.0" y2="208" stroke="#6c5cd0" stroke-width="1.2"/>
<text x="52" y="222" font-family="sans-serif" font-size="10" fill="#23303f">+distancia_a(otro): float</text>
<text x="52" y="238" font-family="sans-serif" font-size="10" fill="#23303f">+en_radio(lat, lon, r): bool</text>
<text x="52" y="254" font-family="sans-serif" font-size="10" fill="#23303f">+coordenadas(): tuple</text>
<rect x="40" y="298" width="192.0" height="184" rx="5" fill="#efeafe" stroke="#6c5cd0" stroke-width="1.6"/>
<path d="M40,338 v-35 a5,5 0 0 1 5,-5 h182.0 a5,5 0 0 1 5,5 v35 z" fill="#ddd3fb" stroke="#6c5cd0" stroke-width="1.6"/>
<text x="136.0" y="314" text-anchor="middle" font-family="sans-serif" font-size="9.5" font-style="italic" fill="#352a78">&#171;entidad&#187;</text>
<text x="136.0" y="331" text-anchor="middle" font-family="sans-serif" font-size="12.5" font-weight="bold" fill="#352a78">ReporteC4</text>
<line x1="40" y1="338" x2="232.0" y2="338" stroke="#6c5cd0" stroke-width="1.2"/>
<text x="52" y="352" font-family="sans-serif" font-size="10" fill="#23303f">+dt_creacion: datetime</text>
<text x="52" y="368" font-family="sans-serif" font-size="10" fill="#23303f">+dt_cierre: datetime</text>
<text x="52" y="384" font-family="sans-serif" font-size="10" fill="#23303f">+dia_semana: str</text>
<text x="52" y="400" font-family="sans-serif" font-size="10" fill="#23303f">+tipo_entrada: str</text>
<line x1="40" y1="410" x2="232.0" y2="410" stroke="#6c5cd0" stroke-width="1.2"/>
<text x="52" y="424" font-family="sans-serif" font-size="10" fill="#23303f">+tiempo_respuesta(): float</text>
<text x="52" y="440" font-family="sans-serif" font-size="10" fill="#23303f">+es_fin_semana(): bool</text>
<text x="52" y="456" font-family="sans-serif" font-size="10" fill="#23303f">+franja_horaria(): str</text>
<text x="52" y="472" font-family="sans-serif" font-size="10" fill="#23303f">+es_outlier_duracion(): bool</text>
<rect x="40" y="516" width="210.0" height="216" rx="5" fill="#efeafe" stroke="#6c5cd0" stroke-width="1.6"/>
<path d="M40,556 v-35 a5,5 0 0 1 5,-5 h200.0 a5,5 0 0 1 5,5 v35 z" fill="#ddd3fb" stroke="#6c5cd0" stroke-width="1.6"/>
<text x="145.0" y="532" text-anchor="middle" font-family="sans-serif" font-size="9.5" font-style="italic" fill="#352a78">&#171;entidad&#187;</text>
<text x="145.0" y="549" text-anchor="middle" font-family="sans-serif" font-size="12.5" font-weight="bold" fill="#352a78">Incidente</text>
<line x1="40" y1="556" x2="250.0" y2="556" stroke="#6c5cd0" stroke-width="1.2"/>
<text x="52" y="570" font-family="sans-serif" font-size="10" fill="#23303f">+folio: str</text>
<text x="52" y="586" font-family="sans-serif" font-size="10" fill="#23303f">+tipo: str</text>
<text x="52" y="602" font-family="sans-serif" font-size="10" fill="#23303f">+subtipo: str</text>
<text x="52" y="618" font-family="sans-serif" font-size="10" fill="#23303f">+codigo_cierre: str</text>
<text x="52" y="634" font-family="sans-serif" font-size="10" fill="#23303f">+reporte: ReporteC4</text>
<text x="52" y="650" font-family="sans-serif" font-size="10" fill="#23303f">+ubicacion: UbicacionGeografica</text>
<line x1="40" y1="660" x2="250.0" y2="660" stroke="#6c5cd0" stroke-width="1.2"/>
<text x="52" y="674" font-family="sans-serif" font-size="10" fill="#23303f">+es_grave(): bool</text>
<text x="52" y="690" font-family="sans-serif" font-size="10" fill="#23303f">+nivel_severidad(): int</text>
<text x="52" y="706" font-family="sans-serif" font-size="10" fill="#23303f">+calcular_duracion(): float</text>
<text x="52" y="722" font-family="sans-serif" font-size="10" fill="#23303f">+resumen(): str</text>
<rect x="400.0" y="96" width="198.0" height="184" rx="5" fill="#efeafe" stroke="#6c5cd0" stroke-width="1.6"/>
<path d="M400.0,136 v-35 a5,5 0 0 1 5,-5 h188.0 a5,5 0 0 1 5,5 v35 z" fill="#ddd3fb" stroke="#6c5cd0" stroke-width="1.6"/>
<text x="499.0" y="112" text-anchor="middle" font-family="sans-serif" font-size="9.5" font-style="italic" fill="#352a78">&#171;agregado&#187;</text>
<text x="499.0" y="129" text-anchor="middle" font-family="sans-serif" font-size="12.5" font-weight="bold" fill="#352a78">Colonia</text>
<line x1="400.0" y1="136" x2="598.0" y2="136" stroke="#6c5cd0" stroke-width="1.2"/>
<text x="412.0" y="150" font-family="sans-serif" font-size="10" fill="#23303f">+nombre: str</text>
<text x="412.0" y="166" font-family="sans-serif" font-size="10" fill="#23303f">+alcaldia: str</text>
<text x="412.0" y="182" font-family="sans-serif" font-size="10" fill="#23303f">-_incidentes: list&lt;Incidente&gt;</text>
<line x1="400.0" y1="192" x2="598.0" y2="192" stroke="#6c5cd0" stroke-width="1.2"/>
<text x="412.0" y="206" font-family="sans-serif" font-size="10" fill="#23303f">+agregar(inc)</text>
<text x="412.0" y="222" font-family="sans-serif" font-size="10" fill="#23303f">+total(): int</text>
<text x="412.0" y="238" font-family="sans-serif" font-size="10" fill="#23303f">+tasa_graves(): float</text>
<text x="412.0" y="254" font-family="sans-serif" font-size="10" fill="#23303f">+hora_pico(): int</text>
<text x="412.0" y="270" font-family="sans-serif" font-size="10" fill="#23303f">+duracion_promedio(): float</text>
<rect x="400.0" y="314" width="228.0" height="168" rx="5" fill="#efeafe" stroke="#6c5cd0" stroke-width="1.6"/>
<path d="M400.0,354 v-35 a5,5 0 0 1 5,-5 h218.0 a5,5 0 0 1 5,5 v35 z" fill="#ddd3fb" stroke="#6c5cd0" stroke-width="1.6"/>
<text x="514.0" y="330" text-anchor="middle" font-family="sans-serif" font-size="9.5" font-style="italic" fill="#352a78">&#171;agregado&#187;</text>
<text x="514.0" y="347" text-anchor="middle" font-family="sans-serif" font-size="12.5" font-weight="bold" fill="#352a78">Alcaldia</text>
<line x1="400.0" y1="354" x2="628.0" y2="354" stroke="#6c5cd0" stroke-width="1.2"/>
<text x="412.0" y="368" font-family="sans-serif" font-size="10" fill="#23303f">+nombre: str</text>
<text x="412.0" y="384" font-family="sans-serif" font-size="10" fill="#23303f">-_colonias: dict&lt;str, Colonia&gt;</text>
<line x1="400.0" y1="394" x2="628.0" y2="394" stroke="#6c5cd0" stroke-width="1.2"/>
<text x="412.0" y="408" font-family="sans-serif" font-size="10" fill="#23303f">+agregar_colonia(c)</text>
<text x="412.0" y="424" font-family="sans-serif" font-size="10" fill="#23303f">+total_incidentes(): int</text>
<text x="412.0" y="440" font-family="sans-serif" font-size="10" fill="#23303f">+tasa_graves(): float</text>
<text x="412.0" y="456" font-family="sans-serif" font-size="10" fill="#23303f">+ranking_colonias(n): list</text>
<text x="412.0" y="472" font-family="sans-serif" font-size="10" fill="#23303f">+tiempo_promedio_atencion(): float</text>
<rect x="778.0" y="96" width="204.0" height="216" rx="5" fill="#e3f4ec" stroke="#2f9e75" stroke-width="1.6"/>
<path d="M778.0,136 v-35 a5,5 0 0 1 5,-5 h194.0 a5,5 0 0 1 5,5 v35 z" fill="#cfeede" stroke="#2f9e75" stroke-width="1.6"/>
<text x="880.0" y="112" text-anchor="middle" font-family="sans-serif" font-size="9.5" font-style="italic" fill="#0f5a44">&#171;conocimiento&#187;</text>
<text x="880.0" y="129" text-anchor="middle" font-family="sans-serif" font-size="12.5" font-weight="bold" fill="#0f5a44">TipoAccidente</text>
<line x1="778.0" y1="136" x2="982.0" y2="136" stroke="#2f9e75" stroke-width="1.2"/>
<text x="790.0" y="150" font-family="sans-serif" font-size="10" fill="#23303f">+nombre: str</text>
<text x="790.0" y="166" font-family="sans-serif" font-size="10" fill="#23303f">+total: int</text>
<text x="790.0" y="182" font-family="sans-serif" font-size="10" fill="#23303f">+graves: int</text>
<text x="790.0" y="198" font-family="sans-serif" font-size="10" fill="#23303f">-_por_hora: ndarray</text>
<text x="790.0" y="214" font-family="sans-serif" font-size="10" fill="#23303f">-_por_alcaldia: dict</text>
<line x1="778.0" y1="224" x2="982.0" y2="224" stroke="#2f9e75" stroke-width="1.2"/>
<text x="790.0" y="238" font-family="sans-serif" font-size="10" fill="#23303f">+porcentaje(): float</text>
<text x="790.0" y="254" font-family="sans-serif" font-size="10" fill="#23303f">+tasa_graves(): float</text>
<text x="790.0" y="270" font-family="sans-serif" font-size="10" fill="#23303f">+hora_pico(): int</text>
<text x="790.0" y="286" font-family="sans-serif" font-size="10" fill="#23303f">+proporcion_horaria(): ndarray</text>
<text x="790.0" y="302" font-family="sans-serif" font-size="10" fill="#23303f">+alcaldia_top(n): list</text>
<rect x="778.0" y="346" width="294.0" height="152" rx="5" fill="#e3f4ec" stroke="#2f9e75" stroke-width="1.6"/>
<path d="M778.0,386 v-35 a5,5 0 0 1 5,-5 h284.0 a5,5 0 0 1 5,5 v35 z" fill="#cfeede" stroke="#2f9e75" stroke-width="1.6"/>
<text x="925.0" y="362" text-anchor="middle" font-family="sans-serif" font-size="9.5" font-style="italic" fill="#0f5a44">&#171;agregado&#187;</text>
<text x="925.0" y="379" text-anchor="middle" font-family="sans-serif" font-size="12.5" font-weight="bold" fill="#0f5a44">CatalogoTipos</text>
<line x1="778.0" y1="386" x2="1072.0" y2="386" stroke="#2f9e75" stroke-width="1.2"/>
<text x="790.0" y="400" font-family="sans-serif" font-size="10" fill="#23303f">-_tipos: dict&lt;str, TipoAccidente&gt;</text>
<text x="790.0" y="416" font-family="sans-serif" font-size="10" fill="#23303f">+total: int</text>
<line x1="778.0" y1="426" x2="1072.0" y2="426" stroke="#2f9e75" stroke-width="1.2"/>
<text x="790.0" y="440" font-family="sans-serif" font-size="10" fill="#23303f">+desde_dataframe(df, alcaldia): CatalogoTipos</text>
<text x="790.0" y="456" font-family="sans-serif" font-size="10" fill="#23303f">+tipos(): list</text>
<text x="790.0" y="472" font-family="sans-serif" font-size="10" fill="#23303f">+top(n): list</text>
<text x="790.0" y="488" font-family="sans-serif" font-size="10" fill="#23303f">+distribucion(): dict</text>
<rect x="1222.0" y="96" width="240.0" height="184" rx="5" fill="#e6f0fb" stroke="#3f7fcf" stroke-width="1.6"/>
<path d="M1222.0,136 v-35 a5,5 0 0 1 5,-5 h230.0 a5,5 0 0 1 5,5 v35 z" fill="#d2e4f8" stroke="#3f7fcf" stroke-width="1.6"/>
<text x="1342.0" y="112" text-anchor="middle" font-family="sans-serif" font-size="9.5" font-style="italic" fill="#13406b">&#171;analisis&#187;</text>
<text x="1342.0" y="129" text-anchor="middle" font-family="sans-serif" font-size="12.5" font-weight="bold" fill="#13406b">AnalisisZona</text>
<line x1="1222.0" y1="136" x2="1462.0" y2="136" stroke="#3f7fcf" stroke-width="1.2"/>
<text x="1234.0" y="150" font-family="sans-serif" font-size="10" fill="#23303f">+alcaldia: Alcaldia</text>
<text x="1234.0" y="166" font-family="sans-serif" font-size="10" fill="#23303f">-_modelo</text>
<text x="1234.0" y="182" font-family="sans-serif" font-size="10" fill="#23303f">-_features: list</text>
<line x1="1222.0" y1="192" x2="1462.0" y2="192" stroke="#3f7fcf" stroke-width="1.2"/>
<text x="1234.0" y="206" font-family="sans-serif" font-size="10" fill="#23303f">+set_modelo(m, features)</text>
<text x="1234.0" y="222" font-family="sans-serif" font-size="10" fill="#23303f">+predecir_gravedad(h, sub, fin): str</text>
<text x="1234.0" y="238" font-family="sans-serif" font-size="10" fill="#23303f">+colonias_alto_riesgo(p): list</text>
<text x="1234.0" y="254" font-family="sans-serif" font-size="10" fill="#23303f">+cluster_colonias(k): dict</text>
<text x="1234.0" y="270" font-family="sans-serif" font-size="10" fill="#23303f">+exportar_reporte(): str</text>
<rect x="1222.0" y="314" width="264.0" height="184" rx="5" fill="#e6f0fb" stroke="#3f7fcf" stroke-width="1.6"/>
<path d="M1222.0,354 v-35 a5,5 0 0 1 5,-5 h254.0 a5,5 0 0 1 5,5 v35 z" fill="#d2e4f8" stroke="#3f7fcf" stroke-width="1.6"/>
<text x="1354.0" y="330" text-anchor="middle" font-family="sans-serif" font-size="9.5" font-style="italic" fill="#13406b">&#171;Naive Bayes&#187;</text>
<text x="1354.0" y="347" text-anchor="middle" font-family="sans-serif" font-size="12.5" font-weight="bold" fill="#13406b">PredictorTipoAccidente</text>
<line x1="1222.0" y1="354" x2="1486.0" y2="354" stroke="#3f7fcf" stroke-width="1.2"/>
<text x="1234.0" y="368" font-family="sans-serif" font-size="10" fill="#23303f">+le_alc: LabelEncoder</text>
<text x="1234.0" y="384" font-family="sans-serif" font-size="10" fill="#23303f">+modelo: CategoricalNB</text>
<text x="1234.0" y="400" font-family="sans-serif" font-size="10" fill="#23303f">+clases_: list</text>
<text x="1234.0" y="416" font-family="sans-serif" font-size="10" fill="#23303f">+metricas: dict</text>
<line x1="1222.0" y1="426" x2="1486.0" y2="426" stroke="#3f7fcf" stroke-width="1.2"/>
<text x="1234.0" y="440" font-family="sans-serif" font-size="10" fill="#23303f">+entrenar(df): self</text>
<text x="1234.0" y="456" font-family="sans-serif" font-size="10" fill="#23303f">+predecir_modelo(alc, h, mes, fin): dict</text>
<text x="1234.0" y="472" font-family="sans-serif" font-size="10" fill="#23303f">+predecir_baseline(alc, h): dict</text>
<text x="1234.0" y="488" font-family="sans-serif" font-size="10" fill="#23303f">+predecir(alc, h): DataFrame</text>
<rect x="1206.0" y="748" width="290" height="116" rx="6" fill="#ffffff" stroke="#c8cfd8" stroke-width="1.2"/>
<text x="1220.0" y="770" font-family="sans-serif" font-size="12" font-weight="bold" fill="#23303f">Leyenda de relaciones</text>
<polygon points="1222.0,792.0 1230.0,799.0 1238.0,792.0 1230.0,785.0" fill="#3a4656" stroke="#3a4656" stroke-width="1.4"/>
<line x1="1238.0" y1="792" x2="1262.0" y2="792" stroke="#3a4656" stroke-width="1.4"/>
<text x="1272.0" y="796" font-family="sans-serif" font-size="10.5" fill="#23303f">Composición (todo ◆ parte)</text>
<polygon points="1222.0,814.0 1230.0,821.0 1238.0,814.0 1230.0,807.0" fill="#fff" stroke="#3a4656" stroke-width="1.4"/>
<line x1="1238.0" y1="814" x2="1262.0" y2="814" stroke="#3a4656" stroke-width="1.4"/>
<text x="1272.0" y="818" font-family="sans-serif" font-size="10.5" fill="#23303f">Agregación (todo ◇ parte)</text>
<line x1="1222.0" y1="836" x2="1262.0" y2="836" stroke="#3a4656" stroke-width="1.4"/>
<polyline points="1251.0,840.9 1262.0,836.0 1251.0,831.1" fill="none" stroke="#3a4656" stroke-width="1.4"/>
<text x="1272.0" y="840" font-family="sans-serif" font-size="10.5" fill="#23303f">Asociación →</text>
<line x1="1222.0" y1="858" x2="1262.0" y2="858" stroke="#3a4656" stroke-width="1.4" stroke-dasharray="6,5"/>
<polyline points="1251.0,862.9 1262.0,858.0 1251.0,853.1" fill="none" stroke="#3a4656" stroke-width="1.4"/>
<text x="1272.0" y="862" font-family="sans-serif" font-size="10.5" fill="#23303f">Dependencia (usa) ⇢</text>
</svg>